<?xml version="1.0" encoding="utf-8"?>
<!-- Generator: Adobe Illustrator 15.1.0, SVG Export Plug-In . SVG Version: 6.00 Build 0)  -->
<!DOCTYPE svg PUBLIC "-//W3C//DTD SVG 1.1//EN" "http://www.w3.org/Graphics/SVG/1.1/DTD/svg11.dtd">
<svg version="1.1" id="Layer_1" xmlns="http://www.w3.org/2000/svg" xmlns:xlink="http://www.w3.org/1999/xlink" x="0px" y="0px"
	 width="128px" height="128px" viewBox="0 0 128 128" enable-background="new 0 0 128 128" xml:space="preserve">
<g>
	<path fill="#414042" d="M63.97,101.705c-5.977,0-11.725-1.385-17.084-4.116c-8.972-4.571-15.626-12.363-18.738-21.94
		c-3.112-9.577-2.309-19.792,2.263-28.762c6.471-12.701,19.353-20.591,33.618-20.591c5.978,0,11.726,1.385,17.086,4.116
		c8.972,4.571,15.627,12.362,18.738,21.939c3.111,9.577,2.307,19.792-2.266,28.764C91.115,93.815,78.234,101.705,63.97,101.705z
		 M64.028,33.295c-11.619,0-22.11,6.426-27.38,16.77c-3.723,7.305-4.377,15.622-1.843,23.421s7.953,14.144,15.259,17.867
		c4.365,2.225,9.044,3.353,13.906,3.353c11.619,0,22.11-6.426,27.38-16.769c3.723-7.307,4.378-15.625,1.845-23.424
		c-2.534-7.798-7.953-14.143-15.259-17.865C73.57,34.423,68.891,33.295,64.028,33.295z"/>
	<g>
		<path fill="#414042" d="M48.875,20.101c-1.476,0-2.847-0.94-3.328-2.419l-3.092-9.511c-0.598-1.838,0.408-3.813,2.247-4.411
			c1.839-0.595,3.813,0.408,4.411,2.247l3.092,9.511c0.598,1.838-0.408,3.813-2.247,4.411
			C49.599,20.045,49.234,20.101,48.875,20.101z"/>
		<path fill="#414042" d="M82.214,124.412c-1.475,0-2.847-0.94-3.327-2.419l-3.092-9.511c-0.598-1.838,0.408-3.813,2.246-4.41
			c1.837-0.599,3.813,0.408,4.41,2.246l3.092,9.511c0.598,1.838-0.408,3.813-2.246,4.41
			C82.938,124.356,82.572,124.412,82.214,124.412z"/>
	</g>
	<g>
		<path fill="#414042" d="M86.819,23.29c-0.534,0-1.077-0.123-1.586-0.382c-1.722-0.877-2.407-2.985-1.53-4.707l4.539-8.911
			c0.878-1.723,2.986-2.407,4.708-1.53c1.722,0.877,2.407,2.985,1.53,4.707l-4.539,8.911C89.323,22.591,88.094,23.29,86.819,23.29z"
			/>
		<path fill="#414042" d="M36.635,120.623c-0.534,0-1.077-0.123-1.586-0.383c-1.722-0.877-2.407-2.984-1.53-4.707l4.539-8.91
			c0.877-1.721,2.985-2.408,4.708-1.529c1.722,0.877,2.407,2.984,1.53,4.707l-4.539,8.91
			C39.138,119.924,37.909,120.623,36.635,120.623z"/>
	</g>
	<g>
		<path fill="#414042" d="M7.089,85.716c-1.476,0-2.848-0.94-3.328-2.419c-0.598-1.839,0.408-3.813,2.247-4.41l9.51-3.091
			c1.839-0.599,3.813,0.409,4.411,2.246c0.598,1.839-0.408,3.813-2.247,4.41l-9.51,3.091C7.813,85.66,7.448,85.716,7.089,85.716z"/>
		<path fill="#414042" d="M111.399,52.377c-1.475,0-2.847-0.94-3.327-2.419c-0.598-1.838,0.408-3.813,2.246-4.411l9.51-3.091
			c1.837-0.597,3.813,0.408,4.41,2.247c0.598,1.838-0.408,3.813-2.246,4.411l-9.51,3.091
			C112.123,52.321,111.758,52.377,111.399,52.377z"/>
	</g>
	<g>
		<path fill="#414042" d="M19.786,44.678c-0.534,0-1.077-0.123-1.585-0.382L9.29,39.756c-1.723-0.877-2.408-2.985-1.53-4.707
			c0.878-1.723,2.985-2.408,4.707-1.53l8.911,4.539c1.723,0.877,2.408,2.985,1.53,4.707C22.29,43.979,21.061,44.678,19.786,44.678z"
			/>
		<path fill="#414042" d="M117.118,94.862c-0.534,0-1.077-0.123-1.586-0.383l-8.91-4.539c-1.723-0.877-2.407-2.984-1.529-4.707
			c0.878-1.721,2.985-2.408,4.707-1.529l8.91,4.539c1.723,0.877,2.407,2.984,1.529,4.707
			C119.621,94.163,118.393,94.862,117.118,94.862z"/>
	</g>
</g>
</svg>
