<?xml version="1.0" encoding="utf-8"?>
<!-- Generator: Adobe Illustrator 15.1.0, SVG Export Plug-In . SVG Version: 6.00 Build 0)  -->
<!DOCTYPE svg PUBLIC "-//W3C//DTD SVG 1.1//EN" "http://www.w3.org/Graphics/SVG/1.1/DTD/svg11.dtd">
<svg version="1.1" id="Layer_1" xmlns="http://www.w3.org/2000/svg" xmlns:xlink="http://www.w3.org/1999/xlink" x="0px" y="0px"
	 width="128px" height="128px" viewBox="0 0 128 128" enable-background="new 0 0 128 128" xml:space="preserve">
<path fill="#414042" d="M33.155,20.553C30.77,40.597,37.559,61,52.28,75.726c12.621,12.62,29.405,19.57,47.261,19.57
	c2.659,0,5.3-0.154,7.913-0.463c-1.229,1.536-2.547,3.009-3.955,4.418c-9.981,9.982-23.254,15.479-37.373,15.479
	c-14.118,0-27.391-5.497-37.373-15.479C8.144,78.641,8.142,45.107,28.749,24.499C30.154,23.094,31.624,21.778,33.155,20.553
	 M43.947,6.27c-7.335,2.921-14.211,7.343-20.148,13.28C0.429,42.921,0.429,80.824,23.803,104.2
	c11.686,11.687,27.005,17.53,42.323,17.53c15.319,0,30.638-5.844,42.323-17.53c5.938-5.941,10.359-12.816,13.279-20.148
	c-7.106,2.829-14.647,4.244-22.188,4.244c-15.314,0-30.628-5.838-42.311-17.521C39.792,53.332,35.372,27.813,43.947,6.27
	L43.947,6.27z"/>
</svg>
