<?xml version="1.0" encoding="utf-8"?>
<!-- Generator: Adobe Illustrator 15.1.0, SVG Export Plug-In . SVG Version: 6.00 Build 0)  -->
<!DOCTYPE svg PUBLIC "-//W3C//DTD SVG 1.1//EN" "http://www.w3.org/Graphics/SVG/1.1/DTD/svg11.dtd">
<svg version="1.1" id="Layer_1" xmlns="http://www.w3.org/2000/svg" xmlns:xlink="http://www.w3.org/1999/xlink" x="0px" y="0px"
	 width="128px" height="128px" viewBox="0 0 128 128" enable-background="new 0 0 128 128" xml:space="preserve">
<g>
	<g>
		<path fill="#414042" d="M35.604,86.607c-9.227-11.275-10.915-26.944-4.303-39.918c4.45-8.734,12.035-15.212,21.358-18.242
			c9.321-3.03,19.267-2.248,28,2.203c8.734,4.45,15.212,12.034,18.241,21.357c3.029,9.323,2.246,19.267-2.205,28.001
			c-0.234,0.462-0.479,0.917-0.731,1.366l-4.359-2.449c0.219-0.389,0.432-0.785,0.636-1.186c3.845-7.546,4.521-16.135,1.905-24.188
			s-8.212-14.604-15.756-18.447c-7.546-3.845-16.135-4.52-24.186-1.903c-8.052,2.616-14.604,8.212-18.448,15.756
			c-5.712,11.208-4.253,24.742,3.717,34.482L35.604,86.607z"/>
		<g>
			<path fill="#414042" d="M48.875,18.449c-1.054,0-2.034-0.671-2.377-1.728L43.407,7.21c-0.427-1.313,0.292-2.723,1.605-3.15
				c1.311-0.429,2.723,0.292,3.15,1.605l3.091,9.511c0.427,1.313-0.292,2.723-1.605,3.15C49.391,18.409,49.13,18.449,48.875,18.449z
				"/>
		</g>
		<g>
			<path fill="#414042" d="M86.82,21.638c-0.382,0-0.77-0.088-1.133-0.273c-1.23-0.626-1.72-2.132-1.093-3.362l4.539-8.911
				c0.627-1.231,2.133-1.719,3.362-1.093c1.23,0.626,1.72,2.132,1.093,3.362l-4.539,8.911C88.608,21.139,87.73,21.638,86.82,21.638z
				"/>
		</g>
		<g>
			<path fill="#414042" d="M7.089,84.064c-1.054,0-2.034-0.672-2.377-1.728c-0.427-1.313,0.292-2.724,1.604-3.151l9.51-3.092
				c1.314-0.423,2.724,0.292,3.15,1.604c0.427,1.313-0.292,2.724-1.604,3.151l-9.51,3.092C7.605,84.024,7.345,84.064,7.089,84.064z"
				/>
			<path fill="#414042" d="M111.399,50.725c-1.054,0-2.033-0.671-2.377-1.728c-0.427-1.313,0.292-2.724,1.605-3.15l9.51-3.091
				c1.311-0.427,2.723,0.291,3.15,1.604c0.427,1.313-0.292,2.724-1.605,3.15l-9.51,3.091
				C111.916,50.686,111.656,50.725,111.399,50.725z"/>
		</g>
		<g>
			<path fill="#414042" d="M19.787,43.026c-0.382,0-0.769-0.088-1.133-0.273l-8.911-4.539c-1.23-0.626-1.72-2.132-1.093-3.362
				c0.626-1.23,2.131-1.72,3.362-1.093l8.911,4.539c1.23,0.626,1.72,2.132,1.093,3.362C21.575,42.527,20.697,43.026,19.787,43.026z"
				/>
		</g>
	</g>
	<g>
		<path fill="#414042" d="M98.355,124.063h-64.3c-7.707,0-13.977-6.23-13.977-13.89c0-7.485,5.916-13.615,13.318-13.961
			c-0.021-0.461-0.031-0.919-0.031-1.373c0-17.637,14.347-31.984,31.982-31.984c10.986,0,21.151,5.637,27.002,14.841
			c1.954-0.513,3.967-0.771,6.006-0.771c13.06,0,23.684,10.625,23.684,23.685C122.039,113.542,111.415,124.063,98.355,124.063z
			 M34.056,101.197c-4.95,0-8.977,4.027-8.977,8.977c0,4.901,4.027,8.89,8.977,8.89h64.3c10.302,0,18.684-8.278,18.684-18.454
			c0-10.303-8.382-18.685-18.684-18.685c-2.162,0-4.284,0.368-6.308,1.095l-2.009,0.72l-1.027-1.869
			c-4.749-8.645-13.816-14.015-23.664-14.015c-14.878,0-26.982,12.104-26.982,26.984c0,1.209,0.088,2.46,0.261,3.717l0.474,3.437
			l-3.409-0.638C35.12,101.249,34.584,101.197,34.056,101.197z"/>
		<path fill="#414042" d="M79.91,92.68c-0.418,0-0.842-0.104-1.23-0.325c-1.201-0.681-1.623-2.206-0.942-3.407
			c4.203-7.416,12.104-12.022,20.618-12.022c1.381,0,2.5,1.119,2.5,2.5s-1.119,2.5-2.5,2.5c-6.718,0-12.951,3.636-16.269,9.487
			C81.627,92.225,80.78,92.68,79.91,92.68z"/>
		<path fill="#414042" d="M43.151,105.67c-0.749,0-1.489-0.335-1.981-0.973c-1.715-2.225-4.309-3.5-7.114-3.5
			c-1.381,0-2.5-1.119-2.5-2.5s1.119-2.5,2.5-2.5c4.367,0,8.403,1.985,11.073,5.445c0.843,1.094,0.641,2.664-0.453,3.507
			C44.222,105.5,43.684,105.67,43.151,105.67z"/>
	</g>
</g>
</svg>
