<?xml version="1.0" encoding="utf-8"?>
<!-- Generator: Adobe Illustrator 15.1.0, SVG Export Plug-In . SVG Version: 6.00 Build 0)  -->
<!DOCTYPE svg PUBLIC "-//W3C//DTD SVG 1.1//EN" "http://www.w3.org/Graphics/SVG/1.1/DTD/svg11.dtd">
<svg version="1.1" id="Layer_1" xmlns="http://www.w3.org/2000/svg" xmlns:xlink="http://www.w3.org/1999/xlink" x="0px" y="0px"
	 width="128px" height="128px" viewBox="0 0 128 128" enable-background="new 0 0 128 128" xml:space="preserve">
<path fill="#414042" d="M100.958,100.742c-10.269,9.891-23.722,15.336-38.021,15.336c-14.653,0-28.428-5.705-38.788-16.065
	C2.761,78.622,2.759,43.82,24.146,22.433c2.633-2.633,5.486-4.967,8.54-6.987c-3.65,18.802,1.2,38.375,13.433,53.354
	c0.87-1.575,2.314-2.576,2.747-4.588C35.81,47.22,33.106,24.838,40.758,5.617c-7.335,2.921-14.211,7.343-20.148,13.28
	c-23.371,23.372-23.371,61.275,0.004,84.651c11.686,11.687,27.005,17.53,42.323,17.53c15.319,0,30.637-5.844,42.323-17.53
	c0.511-0.511,0.995-1.038,1.483-1.563C105.061,101.857,102.781,100.567,100.958,100.742z"/>
<g>
	<path fill="#414042" d="M104.783,103.467H46.356c-7.387,0-13.397-5.974-13.397-13.317c0-6.942,5.309-12.669,12.08-13.333
		c-0.004-0.2-0.006-0.401-0.006-0.601c0-16.411,13.349-29.761,29.757-29.761c10.052,0,19.366,5.072,24.85,13.386
		c1.68-0.399,3.401-0.601,5.144-0.601c12.251,0,22.217,9.968,22.217,22.218C127,93.594,117.034,103.467,104.783,103.467z
		 M46.356,82.689c-4.113,0-7.46,3.347-7.46,7.46c0,4.07,3.347,7.381,7.46,7.381h58.427c8.978,0,16.28-7.21,16.28-16.072
		c0-8.977-7.303-16.281-16.28-16.281c-1.884,0-3.733,0.32-5.497,0.953l-2.384,0.855l-1.22-2.22
		c-4.194-7.633-12.199-12.374-20.893-12.374c-13.135,0-23.821,10.688-23.821,23.824c0,1.063,0.078,2.168,0.231,3.285l0.561,4.081
		l-4.049-0.761C47.238,82.732,46.794,82.689,46.356,82.689z"/>
	<path fill="#414042" d="M88.021,74.949c-0.496,0-0.999-0.124-1.462-0.386c-1.427-0.809-1.926-2.62-1.118-4.047
		c3.943-6.955,11.355-11.276,19.342-11.276c1.64,0,2.969,1.329,2.969,2.969s-1.329,2.968-2.969,2.968
		c-5.853,0-11.285,3.168-14.177,8.269C90.061,74.409,89.055,74.949,88.021,74.949z"/>
	<path fill="#414042" d="M54.622,86.754c-0.889,0-1.768-0.396-2.353-1.155c-1.426-1.85-3.581-2.909-5.913-2.909
		c-1.639,0-2.968-1.329-2.968-2.969s1.329-2.968,2.968-2.968c4.186,0,8.054,1.902,10.613,5.219c1.002,1.299,0.761,3.162-0.537,4.164
		C55.893,86.552,55.255,86.754,54.622,86.754z"/>
</g>
</svg>
