<?xml version="1.0" encoding="utf-8"?>
<!-- Generator: Adobe Illustrator 15.1.0, SVG Export Plug-In . SVG Version: 6.00 Build 0)  -->
<!DOCTYPE svg PUBLIC "-//W3C//DTD SVG 1.1//EN" "http://www.w3.org/Graphics/SVG/1.1/DTD/svg11.dtd">
<svg version="1.1" id="Layer_1" xmlns="http://www.w3.org/2000/svg" xmlns:xlink="http://www.w3.org/1999/xlink" x="0px" y="0px"
	 width="128px" height="128px" viewBox="0 0 128 128" enable-background="new 0 0 128 128" xml:space="preserve">
<g>
	<path fill="none" stroke="#000000" stroke-width="5" stroke-miterlimit="10" d="M27.195,66.409
		c-3.263-7.035-3.377-15.444,0.417-22.889c6.556-12.869,22.304-17.985,35.171-11.429c9.289,4.732,14.539,14.255,14.273,24.026"/>
	
		<line fill="none" stroke="#000000" stroke-width="5" stroke-linecap="round" stroke-miterlimit="10" x1="39.346" y1="19.146" x2="36.982" y2="11.874"/>
	
		<line fill="none" stroke="#000000" stroke-width="5" stroke-linecap="round" stroke-miterlimit="10" x1="68.363" y1="21.585" x2="71.834" y2="14.771"/>
	<g>
		
			<line fill="none" stroke="#000000" stroke-width="5" stroke-linecap="round" stroke-miterlimit="10" x1="14.666" y1="66.956" x2="7.394" y2="69.32"/>
		
			<line fill="none" stroke="#000000" stroke-width="5" stroke-linecap="round" stroke-miterlimit="10" x1="94.429" y1="41.463" x2="87.157" y2="43.827"/>
	</g>
	
		<line fill="none" stroke="#000000" stroke-width="5" stroke-linecap="round" stroke-miterlimit="10" x1="17.104" y1="37.939" x2="10.291" y2="34.468"/>
</g>
<g>
	<path d="M96.368,118.5H19.042c-8.989,0-16.302-7.266-16.302-16.197c0-8.902,7.172-16.16,16.042-16.3
		c-0.042-0.72-0.063-1.435-0.063-2.141c0-20.93,17.026-37.958,37.955-37.958c13.162,0,25.333,6.819,32.242,17.928
		c2.421-0.669,4.919-1.007,7.452-1.007c15.426,0,27.976,12.55,27.976,27.976C124.344,106.074,111.794,118.5,96.368,118.5z
		 M19.042,91.001c-6.232,0-11.302,5.07-11.302,11.302c0,6.174,5.07,11.197,11.302,11.197h77.326
		c12.669,0,22.976-10.183,22.976-22.699c0-12.669-10.307-22.976-22.976-22.976c-2.657,0-5.268,0.453-7.757,1.346l-2.008,0.72
		l-1.027-1.869c-5.8-10.559-16.875-17.117-28.902-17.117c-18.171,0-32.955,14.785-32.955,32.958c0,1.478,0.107,3.005,0.319,4.539
		l0.474,3.438l-3.412-0.64C20.396,91.068,19.703,91.001,19.042,91.001z"/>
	<path d="M74.188,80.759c-0.418,0-0.841-0.104-1.23-0.325c-1.201-0.681-1.623-2.206-0.942-3.407
		c4.963-8.76,14.295-14.201,24.354-14.201c1.381,0,2.5,1.119,2.5,2.5s-1.119,2.5-2.5,2.5c-8.261,0-15.926,4.47-20.004,11.666
		C75.904,80.303,75.059,80.759,74.188,80.759z"/>
	<path d="M29.98,96.381c-0.749,0-1.489-0.335-1.982-0.974c-2.159-2.8-5.423-4.406-8.955-4.406c-1.381,0-2.5-1.119-2.5-2.5
		s1.119-2.5,2.5-2.5c5.094,0,9.802,2.315,12.915,6.354c0.843,1.094,0.64,2.663-0.454,3.506C31.05,96.211,30.513,96.381,29.98,96.381
		z"/>
</g>
</svg>
