<?xml version="1.0" encoding="utf-8"?>
<!-- Generator: Adobe Illustrator 15.1.0, SVG Export Plug-In . SVG Version: 6.00 Build 0)  -->
<!DOCTYPE svg PUBLIC "-//W3C//DTD SVG 1.1//EN" "http://www.w3.org/Graphics/SVG/1.1/DTD/svg11.dtd">
<svg version="1.1" id="Layer_1" xmlns="http://www.w3.org/2000/svg" xmlns:xlink="http://www.w3.org/1999/xlink" x="0px" y="0px"
	 width="128px" height="128px" viewBox="0 0 128 128" enable-background="new 0 0 128 128" xml:space="preserve">
<g>
	<path fill="none" stroke="#000000" stroke-width="5" stroke-miterlimit="10" d="M96.826,97.798
		c14.069,0,25.476-11.131,25.476-25.199c0-14.071-11.406-25.476-25.476-25.476c-3.02,0-5.913,0.528-8.601,1.492
		c-6.028-10.973-17.692-18.413-31.094-18.413c-19.58,0-35.455,15.874-35.455,35.458c0,1.656,0.122,3.283,0.342,4.881
		c-0.817-0.153-1.658-0.242-2.52-0.242c-7.622,0-13.802,6.18-13.802,13.802c0,7.623,6.18,13.697,13.802,13.697H96.826z"/>
	<path fill="none" stroke="#000000" stroke-width="5" stroke-linecap="round" stroke-miterlimit="10" d="M19.501,70.299
		c4.452,0,8.411,2.106,10.935,5.38"/>
	<path fill="none" stroke="#000000" stroke-width="5" stroke-linecap="round" stroke-miterlimit="10" d="M74.647,60.057
		c4.376-7.723,12.669-12.934,22.179-12.934"/>
</g>
</svg>
