<?xml version="1.0" encoding="utf-8"?>
<!-- Generator: Adobe Illustrator 15.1.0, SVG Export Plug-In . SVG Version: 6.00 Build 0)  -->
<!DOCTYPE svg PUBLIC "-//W3C//DTD SVG 1.1//EN" "http://www.w3.org/Graphics/SVG/1.1/DTD/svg11.dtd">
<svg version="1.1" id="Layer_1" xmlns="http://www.w3.org/2000/svg" xmlns:xlink="http://www.w3.org/1999/xlink" x="0px" y="0px"
	 width="128px" height="128px" viewBox="0 0 128 128" enable-background="new 0 0 128 128" xml:space="preserve">
<path fill="none" stroke="#010101" stroke-width="5" stroke-linecap="round" stroke-miterlimit="10" d="M26.841,72.305
	c4.067,0,7.685,1.924,9.991,4.914"/>
<path fill="none" stroke="#010101" stroke-width="5" stroke-linecap="round" stroke-miterlimit="10" d="M77.229,62.945
	c3.998-7.057,11.576-11.817,20.266-11.817"/>
<path fill="#010101" d="M25.806,14.686c1.501-1.502,3.095-2.879,4.773-4.128c-1.785,12.104,0.69,24.456,6.967,34.94
	c1.976-0.021,3.084-1.343,4.486-2.225C34.109,30.292,32.907,14.37,38.428,0.5C32.545,2.842,27.031,6.389,22.27,11.15
	C4.675,28.745,3.6,56.61,19.042,75.466c1.878-0.239,2.951-1.688,4.469-2.469C9.092,56.119,9.849,30.643,25.806,14.686z"/>
<g>
	<path fill="none" stroke="#010101" stroke-width="5" stroke-linecap="round" stroke-miterlimit="10" d="M97.493,97.43
		c12.854,0,23.276-10.171,23.276-23.023c0-12.857-10.422-23.277-23.276-23.277c-2.761,0-5.403,0.483-7.858,1.363
		c-5.508-10.026-16.166-16.824-28.411-16.824c-17.89,0-32.395,14.504-32.395,32.398c0,1.514,0.112,3,0.313,4.459
		c-0.747-0.141-1.515-0.221-2.302-0.221c-6.964,0-12.611,5.646-12.611,12.609c0,3.833,1.71,7.236,4.409,9.523"/>
	<path fill="#010101" d="M36.875,79.707c-0.749,0-1.49-0.335-1.982-0.975c-1.928-2.502-4.843-3.937-7.998-3.937
		c-1.381,0-2.5-1.119-2.5-2.5s1.119-2.5,2.5-2.5c4.717,0,9.076,2.146,11.958,5.884c0.843,1.094,0.64,2.664-0.454,3.508
		C37.945,79.537,37.408,79.707,36.875,79.707z"/>
	<path fill="#010101" d="M77.213,65.45c-0.418,0-0.842-0.104-1.23-0.325c-1.2-0.682-1.623-2.206-0.941-3.407
		c4.568-8.062,13.156-13.07,22.414-13.07c1.381,0,2.5,1.119,2.5,2.5s-1.119,2.5-2.5,2.5c-7.46,0-14.383,4.037-18.064,10.536
		C78.93,64.995,78.084,65.45,77.213,65.45z"/>
</g>
<g>
	<polygon fill="#010101" points="37.7,126.438 64.971,88.936 42.875,95.563 57.124,67.107 31.591,102.768 53.375,95.75 	"/>
</g>
<line fill="none" stroke="#010101" stroke-width="5" stroke-linecap="round" stroke-miterlimit="10" x1="83.538" y1="124.852" x2="90.936" y2="110.33"/>
<line fill="none" stroke="#010101" stroke-width="5" stroke-linecap="round" stroke-miterlimit="10" x1="104.451" y1="124.852" x2="111.848" y2="110.33"/>
</svg>
