<?xml version="1.0" encoding="utf-8"?>
<!-- Generator: Adobe Illustrator 15.1.0, SVG Export Plug-In . SVG Version: 6.00 Build 0)  -->
<!DOCTYPE svg PUBLIC "-//W3C//DTD SVG 1.1//EN" "http://www.w3.org/Graphics/SVG/1.1/DTD/svg11.dtd">
<svg version="1.1" id="Layer_1" xmlns="http://www.w3.org/2000/svg" xmlns:xlink="http://www.w3.org/1999/xlink" x="0px" y="0px"
	 width="128px" height="128px" viewBox="0 0 128 128" enable-background="new 0 0 128 128" xml:space="preserve">
<g>
	<path fill="#010101" d="M97.469,87.691H18.628c-9.165,0-16.62-7.406-16.62-16.514c0-9.076,7.313-16.477,16.356-16.62
		c-0.044-0.732-0.065-1.462-0.065-2.181c0-21.341,17.359-38.702,38.698-38.702c13.419,0,25.829,6.953,32.874,18.28
		c2.469-0.682,5.015-1.027,7.598-1.027c15.729,0,28.523,12.795,28.523,28.523C125.992,75.025,113.197,87.691,97.469,87.691z
		 M18.628,59.655c-6.353,0-11.522,5.17-11.522,11.522c0,6.295,5.168,11.417,11.522,11.417h78.841
		c12.917,0,23.426-10.382,23.426-23.144c0-12.917-10.509-23.426-23.426-23.426c-2.709,0-5.37,0.462-7.908,1.372l-2.048,0.734
		l-1.046-1.905C80.553,25.46,69.262,18.773,56.998,18.773c-18.526,0-33.6,15.074-33.6,33.604c0,1.507,0.109,3.063,0.325,4.629
		l0.483,3.506l-3.479-0.652C20.009,59.724,19.303,59.655,18.628,59.655z"/>
	<path fill="#010101" d="M74.854,49.212c-0.426,0-0.857-0.108-1.254-0.332c-1.225-0.693-1.654-2.25-0.96-3.474
		c5.06-8.932,14.575-14.479,24.829-14.479c1.409,0,2.55,1.141,2.55,2.549c0,1.408-1.141,2.549-2.55,2.549
		c-8.423,0-16.236,4.558-20.396,11.896C76.605,48.748,75.743,49.212,74.854,49.212z"/>
	<path fill="#010101" d="M29.782,65.141c-0.764,0-1.519-0.342-2.021-0.994c-2.202-2.854-5.53-4.491-9.131-4.491
		c-1.408,0-2.549-1.142-2.549-2.549c0-1.408,1.141-2.549,2.549-2.549c5.194,0,9.993,2.36,13.168,6.478
		c0.859,1.116,0.651,2.716-0.463,3.574C30.873,64.967,30.325,65.141,29.782,65.141z"/>
</g>
<g>
	<ellipse fill="#010101" cx="78.719" cy="112.458" rx="4.848" ry="4.989"/>
	<ellipse fill="#010101" cx="49.281" cy="112.458" rx="4.849" ry="4.989"/>
</g>
</svg>
