<?xml version="1.0" encoding="utf-8"?>
<!-- Generator: Adobe Illustrator 15.1.0, SVG Export Plug-In . SVG Version: 6.00 Build 0)  -->
<!DOCTYPE svg PUBLIC "-//W3C//DTD SVG 1.1//EN" "http://www.w3.org/Graphics/SVG/1.1/DTD/svg11.dtd">
<svg version="1.1" id="Layer_1" xmlns="http://www.w3.org/2000/svg" xmlns:xlink="http://www.w3.org/1999/xlink" x="0px" y="0px"
	 width="128px" height="128px" viewBox="0 0 128 128" enable-background="new 0 0 128 128" xml:space="preserve">
<g>
	<g>
		<path fill="#FFFFFF" d="M19.909,84.48c5.403-4.458,12.593-6.646,20.012-5.422c13.761,2.27,23.096,15.417,20.854,29.365
			c-0.322,2.008-0.865,3.915-1.599,5.714"/>
		<path d="M59.174,116.107c-0.246,0-0.5-0.051-0.741-0.148c-0.993-0.418-1.463-1.568-1.053-2.572c0.69-1.689,1.188-3.46,1.48-5.281
			c1.001-6.223-0.452-12.473-4.087-17.594c-3.637-5.122-9.022-8.499-15.167-9.513c-6.57-1.081-13.304,0.739-18.47,5.005
			c-0.833,0.686-2.056,0.565-2.732-0.28c-0.68-0.844-0.554-2.082,0.279-2.768c6.029-4.979,13.883-7.106,21.548-5.84
			c7.166,1.179,13.45,5.121,17.693,11.098c4.24,5.972,5.937,13.265,4.768,20.529c-0.34,2.11-0.918,4.184-1.723,6.146
			C60.66,115.646,59.937,116.107,59.174,116.107z"/>
	</g>
	<g>
		<path fill="#FFFFFF" d="M4.12,87.008c3.874-3.165,9.258-4.201,14.224-2.237c5.502,2.171,8.934,7.402,9.133,13.027"/>
		<path d="M27.476,99.768c-1.041,0-1.901-0.835-1.938-1.898c-0.182-5.017-3.28-9.441-7.9-11.268
			c-4.127-1.622-8.841-0.887-12.298,1.936c-0.833,0.686-2.057,0.548-2.731-0.296c-0.674-0.85-0.541-2.089,0.294-2.77
			c4.536-3.706,10.722-4.676,16.144-2.539c6.064,2.396,10.134,8.204,10.373,14.795c0.038,1.085-0.801,2.001-1.872,2.04
			C27.522,99.768,27.498,99.768,27.476,99.768z"/>
	</g>
	<g>
		<path fill="#FFFFFF" d="M61.111,100.813c4.587-3.448,10.491-5.094,16.572-4.084c9.85,1.623,17.087,9.678,18.224,19.239"/>
		<path d="M95.907,117.938c-0.968,0-1.807-0.729-1.927-1.733c-1.059-8.882-7.885-16.092-16.61-17.534
			c-5.368-0.882-10.731,0.433-15.102,3.723c-0.86,0.653-2.077,0.466-2.715-0.404c-0.641-0.874-0.459-2.107,0.4-2.754
			c5.223-3.931,11.629-5.51,18.045-4.452c10.418,1.722,18.575,10.337,19.842,20.95c0.123,1.082-0.635,2.063-1.7,2.193
			C96.064,117.932,95.984,117.938,95.907,117.938z"/>
	</g>
	<g>
		<path fill="#FFFFFF" d="M47.907,45.151c0.736-7.02,4.322-13.708,10.44-18.136c11.349-8.208,27.11-5.538,35.208,5.963
			c1.169,1.655,2.105,3.399,2.835,5.198"/>
		<path d="M47.907,47.124c-0.064,0-0.135-0.012-0.205-0.012c-1.066-0.121-1.84-1.085-1.726-2.171
			c0.822-7.83,4.917-14.947,11.24-19.528c5.912-4.271,13.112-5.959,20.273-4.748c7.161,1.212,13.431,5.175,17.645,11.172
			c1.229,1.732,2.251,3.618,3.051,5.592c0.405,1.009-0.064,2.149-1.06,2.566c-0.989,0.417-2.126-0.066-2.531-1.075
			c-0.688-1.689-1.569-3.312-2.619-4.804c-3.613-5.129-8.983-8.534-15.123-9.571c-6.139-1.036-12.312,0.407-17.38,4.075
			c-5.419,3.917-8.93,10.026-9.633,16.737C49.735,46.367,48.891,47.124,47.907,47.124z"/>
	</g>
	<g>
		<path fill="#FFFFFF" d="M38.593,58.364c0.551-5.012,3.656-9.584,8.541-11.744c5.415-2.38,11.489-1.119,15.541,2.729"/>
		<path d="M38.593,60.327c-0.071,0-0.144,0-0.217-0.011c-1.066-0.12-1.833-1.096-1.714-2.17c0.645-5.868,4.362-10.977,9.698-13.325
			c5.971-2.631,12.895-1.414,17.639,3.093c0.785,0.746,0.822,1.996,0.091,2.786c-0.733,0.79-1.963,0.833-2.746,0.088
			c-3.614-3.433-8.893-4.365-13.438-2.358c-4.061,1.788-6.894,5.681-7.385,10.154C40.41,59.593,39.569,60.327,38.593,60.327z"/>
	</g>
	<g>
		<path fill="#FFFFFF" d="M88.644,27.481c0.858-5.725,3.91-11.104,8.929-14.734c8.121-5.872,18.852-5.323,26.307,0.653"/>
		<path d="M88.648,29.45c-0.097,0-0.194-0.006-0.291-0.022c-1.061-0.165-1.791-1.167-1.636-2.242
			c0.98-6.514,4.432-12.21,9.722-16.039c8.589-6.212,20.371-5.927,28.642,0.708c0.838,0.68,0.984,1.914,0.318,2.765
			c-0.669,0.854-1.888,0.997-2.73,0.328c-6.926-5.56-16.78-5.8-23.974-0.592c-4.43,3.203-7.319,7.967-8.137,13.422
			C90.417,28.753,89.59,29.45,88.648,29.45z"/>
	</g>
</g>
</svg>
