<?xml version="1.0" encoding="utf-8"?>
<!-- Generator: Adobe Illustrator 15.1.0, SVG Export Plug-In . SVG Version: 6.00 Build 0)  -->
<!DOCTYPE svg PUBLIC "-//W3C//DTD SVG 1.1//EN" "http://www.w3.org/Graphics/SVG/1.1/DTD/svg11.dtd">
<svg version="1.1" id="Layer_1" xmlns="http://www.w3.org/2000/svg" xmlns:xlink="http://www.w3.org/1999/xlink" x="0px" y="0px"
	 width="128px" height="128px" viewBox="0 0 128 128" enable-background="new 0 0 128 128" xml:space="preserve">
<g>
	<path fill="#010101" d="M94.66,101.316c-1.382,0-2.5-1.119-2.5-2.5s1.118-2.5,2.5-2.5c11.457,0,20.776-9.207,20.776-20.523
		c0-11.457-9.319-20.777-20.776-20.777c-2.403,0-4.765,0.409-7.015,1.217l-2.008,0.72l-1.027-1.87
		c-5.262-9.578-15.31-15.528-26.22-15.528c-16.484,0-29.895,13.413-29.895,29.898c0,1.338,0.098,2.725,0.29,4.119l0.474,3.439
		l-3.413-0.643c-0.629-0.119-1.249-0.18-1.84-0.18c-5.575,0-10.111,4.535-10.111,10.11c0,2.942,1.285,5.719,3.525,7.616
		c1.053,0.894,1.184,2.472,0.291,3.523c-0.893,1.055-2.47,1.186-3.523,0.291c-3.363-2.851-5.292-7.017-5.292-11.432
		c0-8.176,6.528-14.855,14.646-15.104c-0.031-0.588-0.046-1.17-0.046-1.746c0-19.242,15.654-34.897,34.895-34.897
		c12.047,0,23.191,6.213,29.559,16.346c2.183-0.588,4.432-0.885,6.711-0.885c14.214,0,25.777,11.563,25.777,25.776
		C120.438,89.865,108.874,101.316,94.66,101.316z"/>
	<path fill="#010101" d="M34.042,81.094c-0.749,0-1.49-0.335-1.982-0.975c-1.928-2.502-4.843-3.937-7.998-3.937
		c-1.381,0-2.5-1.119-2.5-2.5s1.119-2.5,2.5-2.5c4.717,0,9.076,2.146,11.958,5.884c0.843,1.094,0.64,2.664-0.454,3.508
		C35.112,80.924,34.576,81.094,34.042,81.094z"/>
	<path fill="#010101" d="M74.38,66.837c-0.418,0-0.842-0.104-1.23-0.325c-1.2-0.682-1.623-2.206-0.941-3.407
		c4.568-8.062,13.156-13.07,22.414-13.07c1.381,0,2.5,1.119,2.5,2.5s-1.119,2.5-2.5,2.5c-7.46,0-14.383,4.037-18.064,10.535
		C76.097,66.382,75.251,66.837,74.38,66.837z"/>
</g>
<g>
	<polygon fill="#010101" points="35.868,126.824 63.138,89.322 41.042,95.949 55.292,67.494 29.758,103.154 51.542,96.137 	"/>
</g>
<g>
	<path fill="#010101" d="M26.566,55.827c-2.643-7.48-2.115-15.49,1.485-22.555c3.474-6.818,9.396-11.876,16.674-14.241
		c7.277-2.365,15.042-1.754,21.859,1.72c9.01,4.59,14.83,13.357,15.57,23.453L77.17,44.57c-0.612-8.336-5.417-15.575-12.854-19.364
		c-5.627-2.868-12.037-3.373-18.044-1.42c-6.008,1.952-10.896,6.127-13.764,11.756c-2.972,5.832-3.407,12.444-1.225,18.619
		L26.566,55.827z"/>
	<path fill="#010101" d="M42.014,12.533c-1.054,0-2.034-0.671-2.377-1.728l-2.364-7.272c-0.427-1.313,0.292-2.724,1.604-3.15
		c1.315-0.428,2.724,0.292,3.15,1.604l2.364,7.272c0.427,1.313-0.292,2.724-1.604,3.15C42.529,12.494,42.27,12.533,42.014,12.533z"
		/>
	<path fill="#010101" d="M71.028,14.972c-0.383,0-0.771-0.088-1.133-0.273c-1.23-0.626-1.721-2.132-1.094-3.362l3.471-6.814
		c0.627-1.229,2.135-1.72,3.362-1.093c1.229,0.626,1.72,2.132,1.093,3.362l-3.471,6.814C72.815,14.473,71.938,14.972,71.028,14.972z
		"/>
	<g>
		<path fill="#010101" d="M10.062,62.708c-1.054,0-2.034-0.671-2.377-1.728c-0.427-1.313,0.292-2.724,1.604-3.15l7.272-2.364
			c1.314-0.426,2.724,0.292,3.15,1.604c0.426,1.312-0.292,2.724-1.604,3.15l-7.272,2.364C10.578,62.668,10.317,62.708,10.062,62.708
			z"/>
		<path fill="#010101" d="M89.823,37.214c-1.055,0-2.033-0.671-2.377-1.728c-0.428-1.313,0.291-2.724,1.604-3.15l7.271-2.363
			c1.311-0.426,2.724,0.291,3.15,1.605c0.428,1.313-0.291,2.724-1.604,3.15l-7.271,2.363C90.34,37.174,90.08,37.214,89.823,37.214z"
			/>
	</g>
	<path fill="#010101" d="M19.771,31.327c-0.382,0-0.77-0.088-1.133-0.273l-6.813-3.471c-1.23-0.627-1.72-2.132-1.093-3.362
		s2.134-1.72,3.362-1.093l6.813,3.471c1.23,0.627,1.72,2.132,1.093,3.362C21.559,30.828,20.681,31.327,19.771,31.327z"/>
</g>
<ellipse cx="93.667" cy="122.684" rx="4.194" ry="4.316"/>
<ellipse cx="118.023" cy="122.684" rx="4.194" ry="4.316"/>
</svg>
