<?xml version="1.0" encoding="utf-8"?>
<!-- Generator: Adobe Illustrator 15.1.0, SVG Export Plug-In . SVG Version: 6.00 Build 0)  -->
<!DOCTYPE svg PUBLIC "-//W3C//DTD SVG 1.1//EN" "http://www.w3.org/Graphics/SVG/1.1/DTD/svg11.dtd">
<svg version="1.1" id="Layer_1" xmlns="http://www.w3.org/2000/svg" xmlns:xlink="http://www.w3.org/1999/xlink" x="0px" y="0px"
	 width="128px" height="128px" viewBox="0 0 128 128" enable-background="new 0 0 128 128" xml:space="preserve">
<g>
	<path d="M96.993,101.43c-1.381,0-2.5-1.119-2.5-2.5s1.119-2.5,2.5-2.5c11.457,0,20.777-9.207,20.777-20.524
		c0-11.457-9.32-20.777-20.777-20.777c-2.403,0-4.764,0.409-7.015,1.217l-2.008,0.72l-1.027-1.87
		c-5.262-9.578-15.309-15.528-26.22-15.528c-16.484,0-29.895,13.413-29.895,29.898c0,1.339,0.098,2.725,0.29,4.119l0.474,3.44
		l-3.413-0.643c-0.629-0.119-1.249-0.179-1.84-0.179c-5.575,0-10.111,4.535-10.111,10.11c0,2.942,1.285,5.719,3.525,7.617
		c1.053,0.893,1.184,2.471,0.291,3.523c-0.893,1.054-2.47,1.185-3.523,0.291c-3.363-2.851-5.292-7.017-5.292-11.432
		c0-8.176,6.528-14.856,14.646-15.104c-0.031-0.587-0.046-1.169-0.046-1.745c0-19.243,15.654-34.898,34.895-34.898
		c12.048,0,23.192,6.213,29.559,16.346c2.183-0.588,4.432-0.885,6.711-0.885c14.214,0,25.777,11.563,25.777,25.777
		C122.771,89.979,111.207,101.43,96.993,101.43z"/>
	<path d="M36.375,81.207c-0.749,0-1.49-0.335-1.982-0.974c-1.928-2.502-4.843-3.937-7.998-3.937c-1.381,0-2.5-1.119-2.5-2.5
		s1.119-2.5,2.5-2.5c4.717,0,9.076,2.145,11.958,5.884c0.843,1.094,0.64,2.664-0.454,3.507
		C37.445,81.037,36.908,81.207,36.375,81.207z"/>
	<path d="M76.713,66.95c-0.418,0-0.842-0.104-1.23-0.325c-1.201-0.681-1.623-2.206-0.942-3.407
		c4.568-8.062,13.157-13.07,22.414-13.07c1.381,0,2.5,1.119,2.5,2.5s-1.119,2.5-2.5,2.5c-7.46,0-14.382,4.037-18.064,10.535
		C78.43,66.495,77.584,66.95,76.713,66.95z"/>
</g>
<g>
	<polygon points="38.2,126.938 65.471,89.436 43.375,96.063 57.624,67.608 32.091,103.267 53.875,96.25 	"/>
</g>
<g>
	<path d="M84.036,127.853c-0.382,0-0.77-0.088-1.133-0.273c-1.23-0.627-1.72-2.132-1.093-3.362l7.396-14.521
		c0.626-1.229,2.134-1.721,3.362-1.093c1.23,0.627,1.72,2.132,1.093,3.362l-7.396,14.521
		C85.824,127.353,84.946,127.853,84.036,127.853z"/>
	<path d="M104.949,127.853c-0.382,0-0.77-0.088-1.133-0.273c-1.23-0.627-1.72-2.132-1.093-3.362l7.396-14.521
		c0.626-1.229,2.134-1.721,3.362-1.093c1.23,0.627,1.72,2.132,1.093,3.362l-7.396,14.521
		C106.737,127.353,105.859,127.853,104.949,127.853z"/>
	<path d="M63.124,127.854c-0.382,0-0.769-0.088-1.133-0.273c-1.23-0.627-1.72-2.132-1.093-3.362l7.396-14.521
		c0.627-1.229,2.133-1.72,3.362-1.093c1.23,0.627,1.72,2.132,1.093,3.362l-7.396,14.521
		C64.912,127.354,64.034,127.854,63.124,127.854z"/>
</g>
<g>
	<path d="M28.899,55.94c-2.643-7.48-2.115-15.49,1.485-22.555c3.474-6.818,9.396-11.876,16.674-14.241
		c7.277-2.365,15.042-1.754,21.86,1.72c9.01,4.59,14.83,13.357,15.571,23.453l-4.986,0.366c-0.612-8.336-5.417-15.575-12.854-19.364
		c-5.628-2.868-12.037-3.373-18.045-1.42c-6.008,1.952-10.896,6.127-13.764,11.756c-2.972,5.832-3.407,12.444-1.225,18.619
		L28.899,55.94z"/>
	<path d="M44.346,12.646c-1.054,0-2.034-0.671-2.377-1.728l-2.364-7.272c-0.427-1.313,0.292-2.724,1.604-3.15
		c1.315-0.428,2.724,0.292,3.15,1.604l2.364,7.272c0.427,1.313-0.292,2.724-1.604,3.15C44.862,12.607,44.602,12.646,44.346,12.646z"
		/>
	<path d="M73.361,15.085c-0.382,0-0.77-0.088-1.133-0.273c-1.23-0.626-1.72-2.132-1.093-3.362l3.471-6.814
		c0.627-1.23,2.134-1.72,3.362-1.093c1.23,0.626,1.72,2.132,1.093,3.362l-3.471,6.814C75.149,14.586,74.271,15.085,73.361,15.085z"
		/>
	<g>
		<path d="M12.394,62.821c-1.054,0-2.034-0.671-2.377-1.728c-0.427-1.313,0.292-2.724,1.604-3.15l7.272-2.364
			c1.314-0.426,2.724,0.292,3.15,1.604s-0.292,2.724-1.604,3.15l-7.272,2.364C12.91,62.781,12.65,62.821,12.394,62.821z"/>
		<path d="M92.156,37.327c-1.054,0-2.033-0.671-2.377-1.728c-0.427-1.313,0.292-2.724,1.605-3.15l7.271-2.363
			c1.31-0.426,2.723,0.291,3.15,1.605c0.427,1.313-0.292,2.724-1.605,3.15l-7.271,2.363C92.673,37.287,92.413,37.327,92.156,37.327z
			"/>
	</g>
	<path d="M22.103,31.44c-0.382,0-0.77-0.088-1.133-0.273l-6.813-3.471c-1.23-0.627-1.72-2.132-1.093-3.362
		c0.627-1.23,2.134-1.72,3.362-1.093l6.813,3.471c1.23,0.627,1.72,2.132,1.093,3.362C23.891,30.941,23.013,31.44,22.103,31.44z"/>
</g>
</svg>
