<?xml version="1.0" encoding="utf-8"?>
<!-- Generator: Adobe Illustrator 15.1.0, SVG Export Plug-In . SVG Version: 6.00 Build 0)  -->
<!DOCTYPE svg PUBLIC "-//W3C//DTD SVG 1.1//EN" "http://www.w3.org/Graphics/SVG/1.1/DTD/svg11.dtd">
<svg version="1.1" id="Layer_1" xmlns="http://www.w3.org/2000/svg" xmlns:xlink="http://www.w3.org/1999/xlink" x="0px" y="0px"
	 width="128px" height="128px" viewBox="0 0 128 128" enable-background="new 0 0 128 128" xml:space="preserve">
<path fill="none" stroke="#000000" stroke-width="5" stroke-linecap="round" stroke-miterlimit="10" d="M26.341,72.804
	c4.067,0,7.685,1.924,9.991,4.915"/>
<path fill="none" stroke="#000000" stroke-width="5" stroke-linecap="round" stroke-miterlimit="10" d="M76.728,63.445
	c3.999-7.057,11.576-11.817,20.266-11.817"/>
<path d="M25.306,15.186c1.501-1.502,3.095-2.879,4.773-4.128c-1.785,12.104,0.69,24.456,6.967,34.94
	c1.976-0.021,3.084-1.343,4.486-2.225C33.609,30.792,32.407,14.87,37.928,1C32.045,3.342,26.531,6.889,21.77,11.65
	C4.175,29.245,3.1,57.11,18.542,75.966c1.878-0.239,2.951-1.688,4.469-2.469C8.592,56.619,9.349,31.143,25.306,15.186z"/>
<g>
	<path fill="none" stroke="#000000" stroke-width="5" stroke-linecap="round" stroke-miterlimit="10" d="M96.993,97.93
		c12.855,0,23.277-10.171,23.277-23.024c0-12.857-10.422-23.277-23.277-23.277c-2.76,0-5.403,0.483-7.858,1.363
		c-5.508-10.026-16.166-16.824-28.411-16.824c-17.89,0-32.395,14.504-32.395,32.398c0,1.514,0.112,3,0.313,4.46
		c-0.747-0.141-1.515-0.222-2.302-0.222c-6.964,0-12.611,5.646-12.611,12.61c0,3.833,1.71,7.237,4.409,9.524"/>
	<path d="M36.375,80.207c-0.749,0-1.49-0.335-1.982-0.974c-1.928-2.502-4.843-3.937-7.998-3.937c-1.381,0-2.5-1.119-2.5-2.5
		s1.119-2.5,2.5-2.5c4.717,0,9.076,2.145,11.958,5.884c0.843,1.094,0.64,2.664-0.454,3.507
		C37.445,80.037,36.908,80.207,36.375,80.207z"/>
	<path d="M76.713,65.95c-0.418,0-0.842-0.104-1.23-0.325c-1.201-0.681-1.623-2.206-0.942-3.407
		c4.568-8.062,13.157-13.07,22.414-13.07c1.381,0,2.5,1.119,2.5,2.5s-1.119,2.5-2.5,2.5c-7.46,0-14.382,4.037-18.064,10.535
		C78.43,65.495,77.584,65.95,76.713,65.95z"/>
</g>
<g>
	<polygon points="37.2,126.938 64.471,89.436 42.375,96.063 56.624,67.608 31.091,103.267 52.875,96.25 	"/>
</g>
<g>
	
		<line fill="none" stroke="#000000" stroke-width="5" stroke-linecap="round" stroke-miterlimit="10" x1="83.038" y1="125.352" x2="90.435" y2="110.83"/>
	
		<line fill="none" stroke="#000000" stroke-width="5" stroke-linecap="round" stroke-miterlimit="10" x1="103.951" y1="125.352" x2="111.348" y2="110.83"/>
	
		<line fill="none" stroke="#000000" stroke-width="5" stroke-linecap="round" stroke-miterlimit="10" x1="62.126" y1="125.353" x2="69.522" y2="110.831"/>
</g>
</svg>
