<?xml version="1.0" encoding="utf-8"?>
<!-- Generator: Adobe Illustrator 15.1.0, SVG Export Plug-In . SVG Version: 6.00 Build 0)  -->
<!DOCTYPE svg PUBLIC "-//W3C//DTD SVG 1.1//EN" "http://www.w3.org/Graphics/SVG/1.1/DTD/svg11.dtd">
<svg version="1.1" id="Layer_1" xmlns="http://www.w3.org/2000/svg" xmlns:xlink="http://www.w3.org/1999/xlink" x="0px" y="0px"
	 width="128px" height="128px" viewBox="0 0 128 128" enable-background="new 0 0 128 128" xml:space="preserve">
<g>
	<path fill="#020202" d="M97.47,78.506c-1.542,0-2.79-1.25-2.79-2.791s1.248-2.789,2.79-2.789c12.784,0,23.184-10.274,23.184-22.902
		c0-12.785-10.399-23.185-23.184-23.185c-2.683,0-5.317,0.457-7.828,1.358L87.401,29l-1.146-2.087
		C80.383,16.226,69.17,9.586,56.995,9.586c-18.395,0-33.359,14.968-33.359,33.363c0,1.493,0.108,3.041,0.323,4.597l0.528,3.838
		l-3.808-0.718c-0.702-0.133-1.394-0.2-2.054-0.2c-6.221,0-11.282,5.06-11.282,11.282c0,3.282,1.434,6.381,3.933,8.497
		c1.176,1,1.321,2.76,0.325,3.934c-0.997,1.176-2.756,1.322-3.932,0.324C3.918,71.32,1.765,66.67,1.765,61.745
		c0-9.124,7.284-16.577,16.344-16.854c-0.034-0.656-0.051-1.306-0.051-1.948C18.058,21.468,35.525,4,56.996,4
		c13.444,0,25.881,6.933,32.985,18.24c2.436-0.656,4.945-0.987,7.489-0.987c15.861,0,28.765,12.903,28.765,28.763
		C126.235,65.727,113.331,78.506,97.47,78.506z"/>
	<path fill="#020202" d="M29.825,55.939c-0.836,0-1.663-0.373-2.212-1.088c-2.151-2.792-5.404-4.394-8.925-4.394
		c-1.541,0-2.79-1.248-2.79-2.79c0-1.541,1.249-2.789,2.79-2.789c5.264,0,10.128,2.395,13.344,6.566
		c0.94,1.221,0.715,2.973-0.507,3.914C31.02,55.75,30.42,55.939,29.825,55.939z"/>
	<path fill="#020202" d="M74.839,40.031c-0.467,0-0.939-0.117-1.373-0.364c-1.339-0.761-1.812-2.461-1.05-3.801
		c5.097-8.996,14.68-14.585,25.012-14.585c1.541,0,2.79,1.249,2.79,2.79s-1.249,2.79-2.79,2.79c-8.324,0-16.051,4.505-20.157,11.757
		C76.754,39.523,75.811,40.031,74.839,40.031z"/>
</g>
<g>
	<polygon fill="#020202" points="29.2,110.584 56.471,73.082 34.375,79.709 48.624,51.254 23.091,86.914 44.875,79.896 	"/>
</g>
<circle fill="#020202" cx="82.375" cy="102.125" r="8.625"/>
</svg>
