<?xml version="1.0" encoding="utf-8"?>
<!-- Generator: Adobe Illustrator 15.1.0, SVG Export Plug-In . SVG Version: 6.00 Build 0)  -->
<!DOCTYPE svg PUBLIC "-//W3C//DTD SVG 1.1//EN" "http://www.w3.org/Graphics/SVG/1.1/DTD/svg11.dtd">
<svg version="1.1" id="Layer_1" xmlns="http://www.w3.org/2000/svg" xmlns:xlink="http://www.w3.org/1999/xlink" x="0px" y="0px"
	 width="128px" height="128px" viewBox="0 0 128 128" enable-background="new 0 0 128 128" xml:space="preserve">
<g>
	<path fill="none" stroke="#000000" stroke-width="5" stroke-miterlimit="10" d="M26.257,55.108
		c-2.304-6.521-2.033-13.939,1.355-20.587c6.556-12.869,22.304-17.985,35.171-11.429C71.239,27.4,76.349,35.677,76.996,44.5"/>
	
		<line fill="none" stroke="#000000" stroke-width="5" stroke-linecap="round" stroke-miterlimit="10" x1="39.346" y1="10.146" x2="36.982" y2="2.874"/>
	
		<line fill="none" stroke="#000000" stroke-width="5" stroke-linecap="round" stroke-miterlimit="10" x1="68.363" y1="12.585" x2="71.834" y2="5.771"/>
	<g>
		
			<line fill="none" stroke="#000000" stroke-width="5" stroke-linecap="round" stroke-miterlimit="10" x1="14.666" y1="57.956" x2="7.394" y2="60.32"/>
		
			<line fill="none" stroke="#000000" stroke-width="5" stroke-linecap="round" stroke-miterlimit="10" x1="94.429" y1="32.463" x2="87.157" y2="34.827"/>
	</g>
	
		<line fill="none" stroke="#000000" stroke-width="5" stroke-linecap="round" stroke-miterlimit="10" x1="17.104" y1="28.939" x2="10.291" y2="25.468"/>
</g>
<g>
	<path d="M92.233,100.192H21.625c-8.208,0-14.885-6.634-14.885-14.79c0-8.129,6.549-14.756,14.648-14.884
		c-0.039-0.657-0.058-1.31-0.058-1.954c0-19.112,15.547-34.66,34.657-34.66c12.018,0,23.132,6.227,29.441,16.371
		c2.211-0.611,4.491-0.92,6.805-0.92c14.086,0,25.545,11.459,25.545,25.545C117.778,88.847,106.319,100.192,92.233,100.192z
		 M21.625,75.083c-5.69,0-10.32,4.63-10.32,10.319c0,5.638,4.629,10.225,10.32,10.225h70.608c11.568,0,20.979-9.298,20.979-20.727
		c0-11.568-9.411-20.98-20.979-20.98c-2.427,0-4.81,0.414-7.083,1.229l-1.833,0.657L82.379,54.1
		c-5.296-9.641-15.408-15.63-26.391-15.63c-16.592,0-30.091,13.5-30.091,30.095c0,1.349,0.098,2.744,0.291,4.145l0.433,3.14
		l-3.115-0.584C22.861,75.145,22.229,75.083,21.625,75.083z"/>
	<path d="M71.979,65.73c-0.381,0-0.768-0.096-1.123-0.297c-1.097-0.621-1.482-2.015-0.86-3.111
		c4.531-7.999,13.053-12.967,22.237-12.967c1.261,0,2.283,1.022,2.283,2.283c0,1.261-1.022,2.283-2.283,2.283
		c-7.543,0-14.542,4.082-18.266,10.653C73.548,65.314,72.775,65.73,71.979,65.73z"/>
	<path d="M31.614,79.995c-0.684,0-1.36-0.306-1.81-0.889c-1.972-2.557-4.952-4.023-8.177-4.023c-1.261,0-2.283-1.022-2.283-2.283
		s1.022-2.282,2.283-2.282c4.652,0,8.95,2.114,11.793,5.801c0.77,0.999,0.584,2.432-0.414,3.201
		C32.591,79.84,32.1,79.995,31.614,79.995z"/>
</g>
<line fill="none" stroke="#000000" stroke-width="5" stroke-linecap="round" stroke-miterlimit="10" x1="60.302" y1="125.384" x2="67.698" y2="110.862"/>
</svg>
