<?xml version="1.0" encoding="utf-8"?>
<!-- Generator: Adobe Illustrator 15.1.0, SVG Export Plug-In . SVG Version: 6.00 Build 0)  -->
<!DOCTYPE svg PUBLIC "-//W3C//DTD SVG 1.1//EN" "http://www.w3.org/Graphics/SVG/1.1/DTD/svg11.dtd">
<svg version="1.1" id="Layer_1" xmlns="http://www.w3.org/2000/svg" xmlns:xlink="http://www.w3.org/1999/xlink" x="0px" y="0px"
	 width="128px" height="128px" viewBox="0 0 128 128" enable-background="new 0 0 128 128" xml:space="preserve">
<path fill="#414042" d="M25.306,15.186c1.501-1.502,3.095-2.879,4.773-4.128c-1.785,12.104,0.69,24.456,6.967,34.94
	c1.976-0.021,3.084-1.343,4.486-2.225C33.609,30.792,32.407,14.87,37.928,1C32.045,3.342,26.531,6.889,21.77,11.65
	C4.175,29.245,3.1,57.11,18.542,75.966c1.878-0.239,2.951-1.688,4.469-2.469C8.592,56.619,9.349,31.143,25.306,15.186z"/>
<line fill="none" stroke="#000000" stroke-width="5" stroke-linecap="round" stroke-miterlimit="10" x1="65.302" y1="125.384" x2="72.698" y2="110.862"/>
<g>
	<path d="M96.954,100.391H26.394c-8.323,0-15.095-6.729-15.095-15c0-8.166,6.519-14.839,14.626-15.087
		c-0.03-0.585-0.045-1.167-0.045-1.741c0-19.219,15.635-34.855,34.853-34.855c12.032,0,23.162,6.205,29.521,16.325
		c2.181-0.588,4.426-0.885,6.7-0.885c14.197,0,25.747,11.551,25.747,25.749C122.701,88.954,111.151,100.391,96.954,100.391z
		 M26.394,75.297c-5.566,0-10.095,4.528-10.095,10.094c0,5.514,4.528,10,10.095,10h70.561c11.44,0,20.747-9.193,20.747-20.494
		c0-11.441-9.307-20.749-20.747-20.749c-2.396,0-4.754,0.409-7.004,1.216l-2.008,0.72l-1.027-1.87
		c-5.254-9.564-15.287-15.506-26.183-15.506c-16.461,0-29.853,13.393-29.853,29.855c0,1.337,0.097,2.721,0.289,4.114l0.474,3.441
		l-3.414-0.644C27.604,75.356,26.987,75.297,26.394,75.297z"/>
	<path d="M36.375,80.207c-0.749,0-1.49-0.335-1.982-0.974c-1.928-2.502-4.843-3.937-7.998-3.937c-1.381,0-2.5-1.119-2.5-2.5
		s1.119-2.5,2.5-2.5c4.717,0,9.076,2.145,11.958,5.884c0.843,1.094,0.64,2.664-0.454,3.507
		C37.445,80.037,36.908,80.207,36.375,80.207z"/>
	<path d="M76.713,65.95c-0.418,0-0.842-0.104-1.23-0.325c-1.201-0.681-1.623-2.206-0.942-3.407
		c4.568-8.062,13.157-13.07,22.414-13.07c1.381,0,2.5,1.119,2.5,2.5s-1.119,2.5-2.5,2.5c-7.46,0-14.382,4.037-18.064,10.535
		C78.43,65.495,77.584,65.95,76.713,65.95z"/>
</g>
</svg>
