<?xml version="1.0" encoding="utf-8"?>
<!-- Generator: Adobe Illustrator 15.1.0, SVG Export Plug-In . SVG Version: 6.00 Build 0)  -->
<!DOCTYPE svg PUBLIC "-//W3C//DTD SVG 1.1//EN" "http://www.w3.org/Graphics/SVG/1.1/DTD/svg11.dtd">
<svg version="1.1" id="Layer_1" xmlns="http://www.w3.org/2000/svg" xmlns:xlink="http://www.w3.org/1999/xlink" x="0px" y="0px"
	 width="128px" height="128px" viewBox="0 0 128 128" enable-background="new 0 0 128 128" xml:space="preserve">
<path fill="#010101" d="M25.806,14.686c1.501-1.502,3.095-2.879,4.773-4.128c-1.785,12.104,0.69,24.456,6.967,34.94
	c1.976-0.021,3.084-1.343,4.486-2.225C34.109,30.292,32.907,14.37,38.428,0.5C32.545,2.842,27.031,6.389,22.27,11.15
	C4.675,28.745,3.6,56.61,19.042,75.466c1.878-0.239,2.951-1.688,4.469-2.469C9.092,56.119,9.849,30.643,25.806,14.686z"/>
<g>
	<path fill="#010101" d="M97.454,99.891h-70.56c-8.323,0-15.095-6.729-15.095-15c0-8.166,6.519-14.839,14.626-15.086
		c-0.03-0.586-0.045-1.168-0.045-1.742c0-19.219,15.635-34.854,34.853-34.854c12.033,0,23.162,6.205,29.521,16.325
		c2.182-0.588,4.426-0.885,6.7-0.885c14.196,0,25.747,11.551,25.747,25.749C123.201,88.454,111.65,99.891,97.454,99.891z
		 M26.894,74.797c-5.566,0-10.095,4.528-10.095,10.094c0,5.514,4.528,10,10.095,10h70.561c11.439,0,20.747-9.192,20.747-20.494
		c0-11.44-9.308-20.749-20.747-20.749c-2.396,0-4.754,0.409-7.004,1.216l-2.008,0.72l-1.027-1.87
		c-5.254-9.564-15.287-15.506-26.183-15.506c-16.461,0-29.853,13.393-29.853,29.854c0,1.338,0.097,2.722,0.289,4.114l0.474,3.441
		l-3.414-0.644C28.104,74.855,27.487,74.797,26.894,74.797z"/>
	<path fill="#010101" d="M36.875,79.707c-0.749,0-1.49-0.335-1.982-0.975c-1.928-2.502-4.843-3.937-7.998-3.937
		c-1.381,0-2.5-1.119-2.5-2.5s1.119-2.5,2.5-2.5c4.717,0,9.076,2.146,11.958,5.884c0.843,1.094,0.64,2.664-0.454,3.508
		C37.945,79.537,37.408,79.707,36.875,79.707z"/>
	<path fill="#010101" d="M77.213,65.45c-0.418,0-0.842-0.104-1.23-0.325c-1.2-0.682-1.623-2.206-0.941-3.407
		c4.568-8.062,13.156-13.07,22.414-13.07c1.381,0,2.5,1.119,2.5,2.5s-1.119,2.5-2.5,2.5c-7.46,0-14.383,4.037-18.064,10.536
		C78.93,64.995,78.084,65.45,77.213,65.45z"/>
</g>
<circle fill="#020202" cx="64" cy="118.741" r="8.26"/>
</svg>
