<?xml version="1.0" encoding="utf-8"?>
<!-- Generator: Adobe Illustrator 15.1.0, SVG Export Plug-In . SVG Version: 6.00 Build 0)  -->
<!DOCTYPE svg PUBLIC "-//W3C//DTD SVG 1.1//EN" "http://www.w3.org/Graphics/SVG/1.1/DTD/svg11.dtd">
<svg version="1.1" id="Layer_1" xmlns="http://www.w3.org/2000/svg" xmlns:xlink="http://www.w3.org/1999/xlink" x="0px" y="0px"
	 width="128px" height="128px" viewBox="0 0 128 128" enable-background="new 0 0 128 128" xml:space="preserve">
<g>
	<path fill="none" stroke="#010101" stroke-width="5" stroke-miterlimit="10" d="M28.757,54.608
		c-2.304-6.521-2.033-13.939,1.355-20.587c6.556-12.869,22.304-17.985,35.171-11.429C73.738,26.9,78.85,35.177,79.496,44"/>
	
		<line fill="none" stroke="#010101" stroke-width="5" stroke-linecap="round" stroke-miterlimit="10" x1="41.846" y1="9.646" x2="39.482" y2="2.374"/>
	
		<line fill="none" stroke="#010101" stroke-width="5" stroke-linecap="round" stroke-miterlimit="10" x1="70.863" y1="12.085" x2="74.334" y2="5.271"/>
	<g>
		
			<line fill="none" stroke="#010101" stroke-width="5" stroke-linecap="round" stroke-miterlimit="10" x1="17.166" y1="57.456" x2="9.894" y2="59.82"/>
		
			<line fill="none" stroke="#010101" stroke-width="5" stroke-linecap="round" stroke-miterlimit="10" x1="96.93" y1="31.963" x2="89.657" y2="34.327"/>
	</g>
	
		<line fill="none" stroke="#010101" stroke-width="5" stroke-linecap="round" stroke-miterlimit="10" x1="19.604" y1="28.439" x2="12.791" y2="24.968"/>
</g>
<g>
	<path fill="#010101" d="M94.732,99.691H24.125c-8.208,0-14.885-6.633-14.885-14.789c0-8.129,6.549-14.756,14.648-14.885
		c-0.039-0.656-0.058-1.31-0.058-1.953c0-19.112,15.547-34.661,34.657-34.661c12.018,0,23.132,6.227,29.441,16.371
		c2.211-0.611,4.491-0.92,6.805-0.92c14.086,0,25.545,11.459,25.545,25.545C120.277,88.348,108.818,99.691,94.732,99.691z
		 M24.125,74.583c-5.69,0-10.32,4.63-10.32,10.319c0,5.638,4.629,10.225,10.32,10.225h70.607c11.568,0,20.979-9.298,20.979-20.727
		c0-11.568-9.411-20.98-20.979-20.98c-2.426,0-4.81,0.414-7.082,1.229l-1.834,0.657L84.879,53.6
		c-5.296-9.641-15.408-15.63-26.391-15.63c-16.592,0-30.091,13.5-30.091,30.094c0,1.35,0.098,2.744,0.291,4.146l0.433,3.14
		l-3.115-0.584C25.361,74.645,24.729,74.583,24.125,74.583z"/>
	<path fill="#010101" d="M74.479,65.23c-0.381,0-0.768-0.097-1.123-0.297c-1.097-0.621-1.481-2.016-0.859-3.111
		c4.531-7.999,13.053-12.967,22.236-12.967c1.262,0,2.283,1.022,2.283,2.283c0,1.261-1.021,2.283-2.283,2.283
		c-7.543,0-14.541,4.082-18.266,10.653C76.048,64.814,75.275,65.23,74.479,65.23z"/>
	<path fill="#010101" d="M34.114,79.495c-0.684,0-1.36-0.306-1.81-0.89c-1.972-2.557-4.952-4.022-8.177-4.022
		c-1.261,0-2.283-1.022-2.283-2.283s1.022-2.282,2.283-2.282c4.652,0,8.95,2.114,11.793,5.801c0.77,1,0.584,2.433-0.414,3.201
		C35.091,79.34,34.6,79.495,34.114,79.495z"/>
</g>
<ellipse fill="#010101" cx="64" cy="122.577" rx="4.194" ry="4.316"/>
</svg>
