<?xml version="1.0" encoding="utf-8"?>
<!-- Generator: Adobe Illustrator 15.1.0, SVG Export Plug-In . SVG Version: 6.00 Build 0)  -->
<!DOCTYPE svg PUBLIC "-//W3C//DTD SVG 1.1//EN" "http://www.w3.org/Graphics/SVG/1.1/DTD/svg11.dtd">
<svg version="1.1" id="Layer_1" xmlns="http://www.w3.org/2000/svg" xmlns:xlink="http://www.w3.org/1999/xlink" x="0px" y="0px"
	 width="128px" height="128px" viewBox="0 0 128 128" enable-background="new 0 0 128 128" xml:space="preserve">
<g>
	<path fill="#020202" d="M96.969,86.191H18.128c-9.165,0-16.62-7.406-16.62-16.515c0-9.076,7.313-16.477,16.356-16.62
		c-0.044-0.732-0.065-1.462-0.065-2.181c0-21.341,17.359-38.702,38.698-38.702c13.419,0,25.829,6.953,32.874,18.28
		c2.469-0.682,5.016-1.027,7.598-1.027c15.729,0,28.523,12.795,28.523,28.523C125.492,73.525,112.697,86.191,96.969,86.191z
		 M18.128,58.155c-6.353,0-11.522,5.17-11.522,11.522c0,6.296,5.168,11.417,11.522,11.417h78.841
		c12.918,0,23.426-10.382,23.426-23.144c0-12.917-10.508-23.426-23.426-23.426c-2.709,0-5.369,0.462-7.908,1.372l-2.047,0.734
		l-1.047-1.905C80.053,23.96,68.762,17.273,56.498,17.273c-18.526,0-33.6,15.074-33.6,33.604c0,1.507,0.109,3.063,0.325,4.629
		l0.483,3.506l-3.479-0.652C19.509,58.224,18.803,58.155,18.128,58.155z"/>
	<path fill="#020202" d="M74.354,47.712c-0.426,0-0.856-0.108-1.254-0.332c-1.225-0.693-1.654-2.25-0.959-3.474
		c5.06-8.932,14.574-14.479,24.828-14.479c1.409,0,2.551,1.141,2.551,2.549c0,1.408-1.142,2.549-2.551,2.549
		c-8.423,0-16.236,4.558-20.396,11.896C76.105,47.248,75.243,47.712,74.354,47.712z"/>
	<path fill="#020202" d="M29.282,63.641c-0.764,0-1.519-0.342-2.021-0.994c-2.202-2.854-5.53-4.491-9.131-4.491
		c-1.408,0-2.549-1.142-2.549-2.549c0-1.408,1.141-2.549,2.549-2.549c5.194,0,9.993,2.36,13.168,6.478
		c0.859,1.116,0.651,2.716-0.463,3.573C30.373,63.467,29.825,63.641,29.282,63.641z"/>
</g>
<g>
	<path fill="#020202" d="M28.443,121.731c-0.443,0-0.895-0.102-1.316-0.317c-1.429-0.729-1.999-2.476-1.27-3.905l8.594-16.872
		c0.727-1.43,2.478-1.998,3.906-1.27c1.429,0.729,1.999,2.477,1.27,3.906l-8.594,16.871C30.521,121.152,29.5,121.731,28.443,121.731
		z"/>
	<ellipse fill="#010101" cx="64.001" cy="116.709" rx="4.872" ry="5.014"/>
	<path fill="#020202" d="M90.96,121.724c-0.443,0-0.895-0.103-1.316-0.316c-1.429-0.729-1.998-2.478-1.27-3.907l8.592-16.871
		c0.729-1.428,2.48-1.998,3.908-1.27c1.429,0.729,1.997,2.477,1.269,3.906l-8.593,16.871
		C93.038,121.143,92.02,121.724,90.96,121.724z"/>
</g>
</svg>
